<?xml version="1.0" encoding="UTF-8"?>
<svg id="Layer_1" xmlns="http://www.w3.org/2000/svg" version="1.1" viewBox="0 0 340 154">
  <!-- Generator: Adobe Illustrator 30.2.1, SVG Export Plug-In . SVG Version: 2.1.1 Build 1)  -->
  <defs>
    <style>
      .st0 {
        fill: #fbb040;
        font-family: MyriadPro-Regular, 'Myriad Pro';
        font-size: 38.31px;
      }

      .st1 {
        fill: #fff;
      }

      .st1, .st2, .st3 {
        stroke: #231f20;
        stroke-miterlimit: 10;
      }

      .st2 {
        fill: #ed1c24;
      }

      .st3 {
        fill: #bcbec0;
      }
    </style>
  </defs>
  <text class="st0" transform="translate(121.51 50.07) scale(.82 1)"><tspan x="0" y="0">Lifters </tspan><tspan x="-38.71" y="45.97">Association</tspan></text>
  <path class="st2" d="M45.04,15.34h-11.81c-2.44,11.47-5.38,29.59-5.38,52.23,0,12.18.85,30.91,5.38,52.23h13.29"/>
  <path class="st2" d="M54.38,15.34h-11.81c-2.44,11.47-5.38,29.59-5.38,52.23,0,12.18.85,30.91,5.38,52.23h13.29"/>
  <path class="st2" d="M62.65,15.34h-11.81c-2.44,11.47-5.38,29.59-5.38,52.23,0,12.18.85,30.91,5.38,52.23h13.29"/>
  <path class="st2" d="M71.98,15.34h-11.81c-2.44,11.47-5.38,29.59-5.38,52.23,0,12.18.85,30.91,5.38,52.23h13.29"/>
  <ellipse class="st2" cx="73.57" cy="67.57" rx="9.36" ry="52.23"/>
  <path class="st2" d="M287.43,122.13h12.33c2.54-11.98,5.62-30.91,5.62-54.56,0-12.72-.89-32.29-5.62-54.56h-13.88"/>
  <path class="st2" d="M277.68,122.13h12.33c2.54-11.98,5.62-30.91,5.62-54.56,0-12.72-.89-32.29-5.62-54.56h-13.88"/>
  <path class="st2" d="M269.04,122.13h12.33c2.54-11.98,5.62-30.91,5.62-54.56,0-12.72-.89-32.29-5.62-54.56h-13.88"/>
  <path class="st2" d="M259.29,122.13h12.33c2.54-11.98,5.62-30.91,5.62-54.56,0-12.72-.89-32.29-5.62-54.56h-13.88"/>
  <path class="st1" d="M155.09,86.34"/>
  <ellipse class="st2" cx="257.63" cy="67.57" rx="9.78" ry="54.56"/>
  <rect class="st3" x="76.56" y="60" width="178.67" height="7.57"/>
</svg>