<?xml version="1.0" encoding="UTF-8"?>
<svg id="Layer_1" data-name="Layer 1" xmlns="http://www.w3.org/2000/svg" viewBox="0 0 691.01 148.73">
  <path d="M690.51,49.27c0,13.57-18.75,24.57-41.89,24.57s-41.19-10.6-41.87-23.82c-1.25.06-2.52.09-3.81.09-17.91,0-32.43-5.69-32.43-12.7,0-6.25,11.5-11.44,26.65-12.5-.11-.6-.16-1.21-.16-1.83,0-11.04,16.7-20,37.3-20s37.29,8.96,37.29,20c0,1.79-.44,3.53-1.26,5.18,12.1,4.3,20.18,12.1,20.18,21.01Z" fill="#fff" stroke="#231f20" stroke-miterlimit="10"/>
  <path d="M686.72,84.65c0,13.57-18.75,24.57-41.89,24.57s-41.19-10.6-41.87-23.82c-1.25.06-2.52.09-3.81.09-17.91,0-32.43-5.69-32.43-12.7,0-6.25,11.5-11.44,26.65-12.5-.11-.6-.16-1.21-.16-1.83,0-11.04,16.7-20,37.3-20s37.29,8.96,37.29,20c0,1.79-.44,3.53-1.26,5.18,12.1,4.3,20.18,12.1,20.18,21.01Z" fill="#fff" stroke="#231f20" stroke-miterlimit="10"/>
  <path d="M639.7,67.38c0,10.87-13.11,19.68-29.3,19.68s-28.81-8.49-29.28-19.08c-.87.05-1.76.07-2.66.07-12.53,0-22.68-4.56-22.68-10.17,0-5.01,8.04-9.16,18.64-10.01-.08-.48-.11-.97-.11-1.47,0-8.84,11.68-16.02,26.09-16.02s26.08,7.18,26.08,16.02c0,1.43-.31,2.83-.88,4.15,8.46,3.44,14.11,9.69,14.11,16.83Z" fill="#fff" stroke="#231f20" stroke-miterlimit="10"/>
  <path d="M120.5,46.69c0,13.57-18.75,24.57-41.89,24.57s-41.19-10.6-41.87-23.82c-1.25.06-2.52.09-3.81.09C15.02,47.53.5,41.84.5,34.83c0-6.25,11.5-11.44,26.65-12.5-.11-.6-.16-1.21-.16-1.83C26.99,9.46,43.69.5,64.29.5s37.29,8.96,37.29,20c0,1.79-.44,3.53-1.26,5.18,12.1,4.3,20.18,12.1,20.18,21.01Z" fill="#fff" stroke="#231f20" stroke-miterlimit="10"/>
  <path d="M.5,48.35c0-9.79,11.81-17.73,26.39-17.73s25.95,7.65,26.37,17.19c.79-.04,1.59-.06,2.4-.06,11.28,0,20.43,4.11,20.43,9.16,0,4.51-7.24,8.25-16.79,9.02.07.43.1.87.1,1.32,0,7.97-10.52,14.43-23.5,14.43s-23.49-6.46-23.49-14.43c0-1.29.28-2.55.79-3.74-7.62-3.1-12.71-8.73-12.71-15.16Z" fill="#fff" stroke="#231f20" stroke-miterlimit="10"/>
  <path d="M154.55,79.56c0,13.57-18.75,24.57-41.89,24.57s-41.19-10.6-41.87-23.82c-1.25.06-2.52.09-3.81.09-17.91,0-32.43-5.69-32.43-12.7,0-6.25,11.5-11.44,26.65-12.5-.11-.6-.16-1.21-.16-1.83,0-11.04,16.7-20,37.3-20s37.29,8.96,37.29,20c0,1.79-.44,3.53-1.26,5.18,12.1,4.3,20.18,12.1,20.18,21.01Z" fill="#fff" stroke="#231f20" stroke-miterlimit="10"/>
  <path d="M103.74,97.67c0,10.87-13.11,19.68-29.3,19.68s-28.81-8.49-29.28-19.08c-.87.05-1.76.07-2.66.07-12.53,0-22.68-4.56-22.68-10.17,0-5.01,8.04-9.16,18.64-10.01-.08-.48-.11-.97-.11-1.47,0-8.84,11.68-16.02,26.09-16.02s26.08,7.18,26.08,16.02c0,1.43-.31,2.83-.88,4.15,8.46,3.44,14.11,9.69,14.11,16.83Z" fill="#fff" stroke="#231f20" stroke-miterlimit="10"/>
  <path d="M168.4,37.34c8.46-7.47,19.98-10.12,30.82-11.98,12.98-2.22,26.16-3.09,39.31-3.51,26.92-.87,53.93-.54,80.83.89,13.05.69,26.11,1.61,39.1,3.04,12.45,1.37,24.87,3.37,36.96,6.69,6.02,1.65,11.95,3.63,17.72,6.01s11.4,5.15,17.01,7.89c11.03,5.39,22.16,10.67,34.13,13.64,22.82,5.67,47.48,4.26,69.44-4.18,2.74-1.05,5.45-2.21,8.1-3.47,1.22-.58,1.54-2.33.9-3.42-.73-1.25-2.19-1.47-3.42-.9-20.99,9.89-45.26,12.8-68.02,8.39-11.97-2.32-23.09-6.89-34.03-12.17s-22.64-11.15-34.73-14.94c-24.55-7.71-50.66-9.64-76.21-11.2-26.93-1.65-53.94-2.06-80.91-1.47-13.23.29-26.46.92-39.58,2.67-11.65,1.56-23.91,3.57-34.21,9.57-2.4,1.4-4.66,3.05-6.74,4.89-1.01.89-.91,2.62,0,3.54,1.01,1.01,2.52.9,3.54,0h0Z" fill="#d1d3d4"/>
  <path d="M187.22,96.57c3.17-8.61,10.27-14.54,18.31-18.47,4.13-2.02,8.5-3.49,12.9-4.82,5.83-1.76,11.75-3.21,17.72-4.38,23.4-4.58,47.47-4.56,71.13-2.24,24.18,2.38,48.06,7.19,71.77,12.39s48.34,11.29,71.5,20.19c11.37,4.37,22.65,9.31,34.87,10.64,6.18.67,12.42.38,18.61,0s12.79-.81,19.18-1.21c3.12-.2,6.23-.39,9.35-.59s3.22-5.2,0-5c-6.48.41-12.96.82-19.44,1.23s-12.76.94-19.14.97-12.36-.71-18.41-2.35-11.62-3.79-17.31-6.02c-11.66-4.57-23.43-8.7-35.47-12.18-12-3.47-24.15-6.42-36.33-9.15-24.17-5.43-48.5-10.45-73.12-13.27-24.11-2.76-48.56-3.22-72.57.71-11.17,1.83-22.54,4.4-33.05,8.69-8.75,3.57-17,8.79-22.13,16.93-1.31,2.08-2.34,4.31-3.19,6.62-.47,1.27.52,2.74,1.75,3.08,1.4.38,2.61-.47,3.08-1.75h0Z" fill="#d1d3d4"/>
  <path d="M196.36,127.43c3-9.2,12.46-13.41,21.42-14.38,5.66-.61,11.4-.56,17.08-.68s11.8-.23,17.71-.3c23.45-.28,46.91-.02,70.32,1.43,23.49,1.45,46.91,4.11,70.01,8.65,22.69,4.45,44.88,11.07,67.5,15.82,22.21,4.66,45.08,7.46,67.67,3.92,2.77-.43,5.53-.97,8.27-1.59,3.14-.72,1.81-5.54-1.33-4.82-22.26,5.08-45.27,3.14-67.48-1.15-22.97-4.44-45.4-11.2-68.29-15.97-23.32-4.86-47.02-7.81-70.78-9.47s-47.67-2.05-71.51-1.84c-11.67.1-23.4.09-35.06.71-5.63.3-11.24,1.1-16.43,3.39-4.29,1.9-8.03,4.92-10.79,8.71-1.38,1.9-2.39,4.04-3.12,6.26-1,3.07,3.83,4.38,4.82,1.33h0Z" fill="#d1d3d4"/>
  <g>
    <path d="M218.7,32.71c.03.14.05.27.05.38,0,.45-.28.76-.84.91-.03.02-.57.1-1.62.26-2.77.39-5.61.71-8.53.96-1.23,2.64-2.75,6.92-4.55,12.84-1.66,5.41-2.88,9.92-3.66,13.55-.27,1.17-.66,1.76-1.17,1.76-.33,0-.99-.17-1.99-.52-.36-.11-.55-.32-.59-.63.03.31.05-.16.05-1.43,0-2.3.37-4.39,1.1-6.28.28-.7.59-1.05.94-1.05.09,0,.28.04.55.11s.5.11.67.13c.42-1.59,1.42-4.74,3-9.45,1.78-5.31,2.75-8.23,2.91-8.74-2.41.19-4.81.56-7.22,1.12-2.67.66-4.42,1.35-5.25,2.09-.94.84-1.41,1.68-1.41,2.51,0,.89.52,2.28,1.55,4.17.11.2.16.39.16.56,0,.39-.18.59-.54.59-.25,0-.48-.15-.68-.45-1.23-1.77-2.04-3.14-2.41-4.12-.27-.69-.45-1.68-.56-2.98-.17-1.91,1.4-3.31,4.71-4.22,4.31-1.17,8.66-1.95,13.05-2.34.5-1.02.87-1.52,1.1-1.52.36,0,.97.39,1.83,1.17.41,0,1.66-.16,3.77-.47.38-.06.76-.34,1.15-.82.34-.45,1.16-.71,2.46-.77.7-.03,1.19.23,1.45.8.05.08.22.71.52,1.9Z" fill="#f3e5d3"/>
    <path d="M227.86,44.99c0,2.05-.27,4-.82,5.86-.17.56-.41.84-.7.84-.22,0-.7-.31-1.45-.94-.38-.31-.47-.76-.28-1.34.44-1.42.66-2.56.66-3.42,0-.3-.06-.45-.19-.45-.19,0-.49.28-.91.84-3.25,4.23-5.68,8.98-7.29,14.25-.52,1.67-.95,2.51-1.31,2.51-.14,0-.76-.27-1.85-.82-.53-.27-.71-.78-.54-1.55,1.23-5.41,2.56-9.97,3.98-13.69-1.16,1.22-1.89,2.05-2.2,2.51-.12.19-.3.28-.52.28-.27,0-.4-.12-.4-.35,0-.14.06-.3.19-.47.77-.92,1.79-2.33,3.07-4.22.39-.69.78-1.03,1.17-1.03.28,0,.85.22,1.71.66.48.25.56.59.23,1.01-.34.45-.99,2.05-1.95,4.8-.91,2.67-1.53,4.77-1.88,6.28,2.12-4.73,4.54-8.91,7.24-12.54.52-.69.93-1.03,1.24-1.03.28,0,.66.19,1.15.56.66.08,1.07.18,1.24.3.27.19.4.56.4,1.12Z" fill="#f3e5d3"/>
    <path d="M244.45,47.01c-1.44,3.98-2.43,7.33-2.98,10.03.23-.22.54-.55.93-1.01s.62-.72.71-.8c.22-.28.45-.42.7-.42.23,0,.35.12.35.35,0,.14-.06.3-.19.49-1.47,2.17-2.45,4.37-2.93,6.59-.14.62-.35.94-.63.94-.27,0-.76-.25-1.48-.75-.42-.28-.66-.52-.73-.7-.08-.17-.08-.52,0-1.03.66-3.97,1.48-7.27,2.46-9.89-1.36,2.2-3.21,4.64-5.55,7.31-2.05,2.33-3.52,3.81-4.43,4.45-.66.45-1.16.68-1.5.68-.28,0-.71-.23-1.29-.68-.83-.5-1.24-1.19-1.24-2.06,0-.17.02-.37.05-.59.28-2.31,1.3-5,3.05-8.07s3.76-5.66,6.02-7.77c.73-.69,1.39-1.02,1.97-1.01.56.03,1.63.77,3.21,2.23.14.12.21.26.21.4,0,.25-.16.38-.49.38-.12,0-.24-.02-.35-.07-1.11-.47-2-.45-2.67.05-1.47,1.08-3.09,2.98-4.88,5.7-2.06,3.12-3.3,5.94-3.73,8.44-.02.11-.02.21-.02.3,0,.39.16.59.47.59.53,0,1.16-.37,1.9-1.1,1.75-1.7,3.62-3.84,5.62-6.42,2.05-2.67,3.36-4.69,3.94-6.05.42-1,.7-1.7.82-2.11.2-.7.42-1.05.66-1.05s.78.32,1.64.96c.36.27.55.51.59.73.03.19-.04.52-.21.98Z" fill="#f3e5d3"/>
    <path d="M254.16,57.3c.05,1.88-.99,3.16-3.12,3.84-.27.66-.52,1.11-.75,1.36-.36.38-.89.59-1.59.66-.45.03-.94,0-1.45-.07-.92-.14-2.05-.31-3.4-.52-.38-.06-.6-.29-.68-.68.06-.42.5-.67,1.31-.75,1.11-.08,2.75-.27,4.92-.59.81-.19,1.39-.65,1.73-1.38.2-.38.3-.84.3-1.38,0-.98-.49-2.72-1.48-5.2-.97-2.42-1.42-4.04-1.36-4.85.12-1.95,1.93-3.31,5.41-4.08.34-.08.52.05.52.38,0,.19-.12.34-.38.45-1.69.73-2.53,1.64-2.53,2.72,0,.42.08.95.23,1.58s.62,2.15,1.41,4.56c.58,1.73.88,3.05.89,3.96ZM257.91,43.84c0,.7-.19,1.83-.56,3.38-.14.53-.3.88-.47,1.03-.08.08-.34.2-.8.35-.58.22-.94.33-1.08.33-.23,0-.35-.16-.35-.47,0-.17.03-.4.09-.68.38-1.55.52-2.62.43-3.22s.09-.98.53-1.14c.77-.39,1.26-.59,1.48-.59.48,0,.73.34.73,1.01Z" fill="#f3e5d3"/>
    <path d="M277.22,26.24c.2.16.3.33.3.52,0,.28-.18.42-.54.42-.16,0-.32-.05-.49-.14-.72-.36-1.26-.54-1.62-.54-.95,0-2.02.95-3.19,2.86-4.12,6.72-7.18,15.52-9.16,26.39,2.55-4.89,5.46-8.8,8.74-11.72.7-.62,1.22-.94,1.55-.94.09,0,.48.22,1.17.66.83.34,1.3.56,1.41.66.41.36.61.98.61,1.88,0,.25-.02.52-.05.82-.27,2.78-1.06,6.15-2.39,10.1.48-.66,1.25-1.62,2.3-2.88.25-.27.46-.4.63-.4s.26.1.26.3c0,.23-.1.5-.3.8-.91,1.31-2.11,3.23-3.61,5.77-.12.25-.43.91-.91,1.97-.2.5-.48.75-.84.75-.41,0-.99-.27-1.76-.82-.31-.22-.37-.56-.16-1.03,2.69-6.75,4.11-11.79,4.27-15.12.05-.95-.09-1.43-.4-1.43-.2,0-.63.27-1.29.8-1.2.97-2.68,2.69-4.43,5.16-2.31,3.25-4.1,6.57-5.37,9.96-.34.97-.66,1.45-.96,1.45-.27,0-.79-.32-1.57-.96-.39-.33-.52-.88-.4-1.64,1.81-9.92,4.17-18.4,7.08-25.43,2.16-5.23,4.1-8.66,5.84-10.27.44-.41.87-.61,1.29-.61s.99.25,1.66.75l2.34,1.92Z" fill="#f3e5d3"/>
    <path d="M335.93,40.49c.17.2.26.42.26.66,0,.47-.2.7-.59.7-.11,0-.21-.04-.3-.12-.33-.28-.74-.59-1.24-.91-2.7,9.95-5.97,17.11-9.8,21.47-.41.45-.95.68-1.64.68s-1.34-.18-2.06-.54c-2.19-.64-3.7-1.3-4.55-1.99-1.23-.98-1.91-2.48-2.02-4.5-.05-.58-.07-1.2-.07-1.88,0-4.36.62-8.88,1.85-13.57-1.72,1.84-3.62,4.24-5.72,7.2-2.45,3.45-4.15,6.29-5.09,8.51-1,2.33-1.7,3.78-2.09,4.36-.31.45-.85.87-1.62,1.24-1.25.62-2.11.94-2.58.94-.33,0-.49-.14-.49-.42,0-.22.09-.53.28-.94,1.61-3.41,3.23-8.07,4.85-14s2.44-10.18,2.44-12.74c0-.41-.03-.74-.09-1.01-1.62.39-3.57,1.11-5.84,2.16-2.17,1-4,1.99-5.48,2.98-.8.55-1.2,1.27-1.2,2.18,0,.58.16,1.23.47,1.95.08.16.12.29.12.4,0,.27-.13.4-.4.4-.28,0-.55-.16-.82-.49-1.91-2.36-2.83-3.88-2.77-4.57.05-.81,1.03-1.73,2.95-2.74,1.39-.73,3.42-1.54,6.09-2.41,2.75-.89,4.5-1.52,5.25-1.9l.23-.7c.14-.36.39-.54.75-.54.56,0,1.45.45,2.65,1.34.98.72,1.48,1.62,1.48,2.72,0,.27-.04.8-.12,1.59-.12,1.19-.66,3.59-1.59,7.2-.89,3.39-1.67,6.09-2.34,8.09,1.36-1.98,3.56-4.97,6.61-8.95,2.94-3.86,4.66-6.03,5.16-6.52.5-1.84.83-2.95.98-3.3.36-.81.84-1.22,1.45-1.22.2,0,.43.04.68.12,1.72.53,2.58,1.05,2.58,1.55,0,.28-.19.62-.56,1.03l-1.62,1.71-.02.02c-2.14,6.98-3.21,12.82-3.21,17.51,0,.66.02,1.3.05,1.95.09,1.62.48,2.96,1.17,4.01s1.5,1.56,2.44,1.55c1.09-.02,2.09-.64,2.98-1.88,1.55-2.14,3.15-5.12,4.8-8.93,1.89-4.33,3.1-8.13,3.63-11.41-.73-.84-1.1-2.02-1.1-3.54,0-1.27.26-2.84.77-4.71.27-1.02.68-1.52,1.24-1.52.52,0,1.14.44,1.88,1.31.55.67.82,1.45.82,2.32,0,.55-.45,2.75-1.36,6.61.22.22.7.73,1.45,1.55Z" fill="#f3e5d3"/>
    <path d="M346.57,55.94c-3.8,4.86-6.47,7.29-8.02,7.29-.73,0-1.66-.51-2.79-1.52-1.17-.55-1.76-1.28-1.76-2.2,0-.17.02-.35.05-.54.28-2.14.85-4.51,1.71-7.1-.58-.3-.87-.58-.87-.84,0-.22.16-.33.49-.33.25,0,.51.07.77.21,1.39-3.12,2.64-5.34,3.75-6.66.72-.88,1.37-1.31,1.95-1.31.27,0,.92.23,1.97.68-.08-.47.05-.74.4-.82h1.1c.67,0,1.01.12,1.01.35,0,.05-.02.18-.07.4s-.07.42-.07.61c0,.56,0,1.26.02,2.09s.02,1.38.02,1.66c0,1.94-.53,3.29-1.59,4.05-.97.7-2.06,1.05-3.28,1.05-.64,0-1.7-.17-3.19-.52-.27.48-.56,1.43-.89,2.84-.44,1.78-.64,3.36-.61,4.73.02.81.27,1.22.77,1.22.19,0,.43-.05.73-.14,1.81-.64,4.34-2.59,7.57-5.86.2-.2.41-.3.61-.3.3,0,.45.14.45.42,0,.17-.08.35-.23.54ZM343.83,45.58c0-.61-.13-.91-.4-.91-.17,0-.42.12-.75.38-1.53,1.23-2.88,3.4-4.03,6.49.31.05.86.09,1.64.14,1.27.05,2.21-.24,2.84-.87.47-.47.73-1.24.77-2.32-.05.8-.07-.17-.07-2.91Z" fill="#f3e5d3"/>
    <path d="M364.76,47.01c-1.44,3.98-2.43,7.33-2.98,10.03.23-.22.54-.55.93-1.01s.62-.72.71-.8c.22-.28.45-.42.7-.42.23,0,.35.12.35.35,0,.14-.06.3-.19.49-1.47,2.17-2.45,4.37-2.93,6.59-.14.62-.35.94-.63.94-.27,0-.76-.25-1.48-.75-.42-.28-.66-.52-.73-.7-.08-.17-.08-.52,0-1.03.66-3.97,1.48-7.27,2.46-9.89-1.36,2.2-3.21,4.64-5.55,7.31-2.05,2.33-3.52,3.81-4.43,4.45-.66.45-1.16.68-1.5.68-.28,0-.71-.23-1.29-.68-.83-.5-1.24-1.19-1.24-2.06,0-.17.02-.37.05-.59.28-2.31,1.3-5,3.05-8.07s3.76-5.66,6.02-7.77c.73-.69,1.39-1.02,1.97-1.01.56.03,1.63.77,3.21,2.23.14.12.21.26.21.4,0,.25-.16.38-.49.38-.12,0-.24-.02-.35-.07-1.11-.47-2-.45-2.67.05-1.47,1.08-3.09,2.98-4.88,5.7-2.06,3.12-3.3,5.94-3.73,8.44-.02.11-.02.21-.02.3,0,.39.16.59.47.59.53,0,1.16-.37,1.9-1.1,1.75-1.7,3.62-3.84,5.62-6.42,2.05-2.67,3.36-4.69,3.94-6.05.42-1,.7-1.7.82-2.11.2-.7.42-1.05.66-1.05s.78.32,1.64.96c.36.27.55.51.59.73.03.19-.04.52-.21.98Z" fill="#f3e5d3"/>
    <path d="M380.37,32.71c.44.23.66.5.66.8,0,.2-.15.3-.45.3-.06,0-.16-.01-.29-.04s-.23-.04-.29-.04c-.59,0-1.31.65-2.16,1.95-.75,1.16-1.79,3.67-3.12,7.55-.12.34-.17.55-.14.61.05.11.25.17.61.19.92.08,2.16.05,3.7-.09.53-.05.8.18.8.68,0,.34-.2.55-.61.63-.33.05-2.05.19-5.18.42-1.88,5.48-3.02,10.12-3.42,13.92-.02.2-.02.38-.02.54,0,.53.13.8.4.8.42,0,1.7-1.02,3.82-3.07.25-.25.49-.38.73-.38.2,0,.33.09.38.26.05.19-.02.41-.21.66-1.27,1.67-2.51,3.09-3.73,4.27-.52.48-.95.73-1.29.73s-.88-.27-1.59-.82c-.89-.23-1.34-.7-1.34-1.41,0-.11.02-.23.05-.38.58-4.03,1.71-8.99,3.4-14.88-.83-.11-1.58-.22-2.25-.33-.3-.05-.45-.23-.45-.56,0-.36.16-.58.47-.66s.89-.25,1.73-.52c.52-.17,1.02-.41,1.5-.7,1.67-5.17,2.98-8.52,3.94-10.05.55-.88,1.13-1.31,1.76-1.31s1.46.31,2.6.94Z" fill="#f3e5d3"/>
    <path d="M397.03,26.24c.2.16.3.33.3.52,0,.28-.18.42-.54.42-.16,0-.32-.05-.49-.14-.72-.36-1.26-.54-1.62-.54-.95,0-2.02.95-3.19,2.86-4.12,6.72-7.18,15.52-9.16,26.39,2.55-4.89,5.46-8.8,8.74-11.72.7-.62,1.22-.94,1.55-.94.09,0,.48.22,1.17.66.83.34,1.3.56,1.41.66.41.36.61.98.61,1.88,0,.25-.02.52-.05.82-.27,2.78-1.06,6.15-2.39,10.1.48-.66,1.25-1.62,2.3-2.88.25-.27.46-.4.63-.4s.26.1.26.3c0,.23-.1.5-.3.8-.91,1.31-2.11,3.23-3.61,5.77-.12.25-.43.91-.91,1.97-.2.5-.48.75-.84.75-.41,0-.99-.27-1.76-.82-.31-.22-.37-.56-.16-1.03,2.69-6.75,4.11-11.79,4.27-15.12.05-.95-.09-1.43-.4-1.43-.2,0-.63.27-1.29.8-1.2.97-2.68,2.69-4.43,5.16-2.31,3.25-4.1,6.57-5.37,9.96-.34.97-.66,1.45-.96,1.45-.27,0-.79-.32-1.57-.96-.39-.33-.52-.88-.4-1.64,1.81-9.92,4.17-18.4,7.08-25.43,2.16-5.23,4.1-8.66,5.84-10.27.44-.41.87-.61,1.29-.61s.99.25,1.66.75l2.34,1.92Z" fill="#f3e5d3"/>
    <path d="M410.6,55.94c-3.8,4.86-6.47,7.29-8.02,7.29-.73,0-1.66-.51-2.79-1.52-1.17-.55-1.76-1.28-1.76-2.2,0-.17.02-.35.05-.54.28-2.14.85-4.51,1.71-7.1-.58-.3-.87-.58-.87-.84,0-.22.16-.33.49-.33.25,0,.51.07.77.21,1.39-3.12,2.64-5.34,3.75-6.66.72-.88,1.37-1.31,1.95-1.31.27,0,.92.23,1.97.68-.08-.47.05-.74.4-.82h1.1c.67,0,1.01.12,1.01.35,0,.05-.02.18-.07.4s-.07.42-.07.61c0,.56,0,1.26.02,2.09s.02,1.38.02,1.66c0,1.94-.53,3.29-1.59,4.05-.97.7-2.06,1.05-3.28,1.05-.64,0-1.7-.17-3.19-.52-.27.48-.56,1.43-.89,2.84-.44,1.78-.64,3.36-.61,4.73.02.81.27,1.22.77,1.22.19,0,.43-.05.73-.14,1.81-.64,4.34-2.59,7.57-5.86.2-.2.41-.3.61-.3.3,0,.45.14.45.42,0,.17-.08.35-.23.54ZM407.86,45.58c0-.61-.13-.91-.4-.91-.17,0-.42.12-.75.38-1.53,1.23-2.88,3.4-4.03,6.49.31.05.86.09,1.64.14,1.27.05,2.21-.24,2.84-.87.47-.47.73-1.24.77-2.32-.05.8-.07-.17-.07-2.91Z" fill="#f3e5d3"/>
    <path d="M427.27,44.99c0,2.05-.27,4-.82,5.86-.17.56-.41.84-.7.84-.22,0-.7-.31-1.45-.94-.38-.31-.47-.76-.28-1.34.44-1.42.66-2.56.66-3.42,0-.3-.06-.45-.19-.45-.19,0-.49.28-.91.84-3.25,4.23-5.68,8.98-7.29,14.25-.52,1.67-.95,2.51-1.31,2.51-.14,0-.76-.27-1.85-.82-.53-.27-.71-.78-.54-1.55,1.23-5.41,2.56-9.97,3.98-13.69-1.16,1.22-1.89,2.05-2.2,2.51-.12.19-.3.28-.52.28-.27,0-.4-.12-.4-.35,0-.14.06-.3.19-.47.77-.92,1.79-2.33,3.07-4.22.39-.69.78-1.03,1.17-1.03.28,0,.85.22,1.71.66.48.25.56.59.23,1.01-.34.45-.99,2.05-1.95,4.8-.91,2.67-1.53,4.77-1.88,6.28,2.12-4.73,4.54-8.91,7.24-12.54.52-.69.93-1.03,1.24-1.03.28,0,.66.19,1.15.56.66.08,1.07.18,1.24.3.27.19.4.56.4,1.12Z" fill="#f3e5d3"/>
  </g>
  <path d="M231.79,148.73h-.28v-.77c0,.27.1.52.28.77Z"/>
  <path d="M198.61,21.35c0,.52-1.23.95-2.74.95-1.28,0-2.35-.3-2.66-.71-.06-.08-.09-.15-.09-.24v-2.13h2.37v1.2c.12,0,.24,0,.37,0,1.52,0,2.74.42,2.74.95Z" fill="#58595b"/>
  <path d="M335.8,100.83c0,.52-.76.95-1.69.95-.79,0-1.45-.3-1.64-.71-.03-.08-.05-.15-.05-.24v-2.14h1.46v1.2c.07,0,.15,0,.23,0,.94,0,1.69.43,1.69.95Z" fill="#58595b"/>
  <path d="M248.17,122.99c0-.52,1.22-.94,2.73-.94,1.28,0,2.35.3,2.65.71.06.08.09.15.09.24v2.13h-2.37v-1.19c-.12,0-.24,0-.37,0-1.51,0-2.73-.42-2.73-.94Z" fill="#58595b"/>
  <path d="M371.79,20.12c0-.43,1.02-.79,2.28-.79,1.06,0,1.96.25,2.21.59.05.06.07.13.07.2v1.78h-1.97v-.99c-.1,0-.2,0-.31,0-1.26,0-2.28-.35-2.28-.79Z" fill="#58595b"/>
  <path d="M491.22,117.62c0,.54-1.26.98-2.83.98-1.32,0-2.43-.31-2.74-.73-.06-.08-.09-.16-.09-.24v-2.2h2.45v1.23c.12,0,.25,0,.38,0,1.56,0,2.83.44,2.83.98Z" fill="#58595b"/>
  <g>
    <path d="M381.97,128.08c.52-.11,1.04.29,1.22.79s.07,1.06-.11,1.55" fill="none" stroke="#e6e7e8" stroke-miterlimit="10" stroke-width=".1"/>
    <ellipse cx="386.42" cy="133.79" rx="10.07" ry="7.22" fill="#e6e7e8"/>
    <path d="M378.6,133.34c-.05-.88-.01-1.76.1-2.63.59-.13,1.24.12,1.58.61.1.14.26.33.41.24.04-.03.07-.07.1-.11.53-.86,1.05-1.72,1.58-2.57.83.13,1.59.63,2.04,1.34.14.23.36.52.61.42.08-.03.13-.09.19-.14.66-.66,1.45-1.06,2.11-1.72.82-.2,1.66-.27,2.5-.22.14,0,.3.03.4.12.1.1.13.25.16.39.07.41.15.83.07,1.25s-.32.82-.71.97c.77,0,1.54,0,2.31.01l-.45,1.61c-.03.11-.06.22-.03.32.03.11.11.19.19.26.63.63,1.3,1.28,2.15,1.52" fill="none" stroke="#808285" stroke-miterlimit="10"/>
    <path d="M381.07,134.42c.42-.72.92-1.38,1.5-1.98.52.69.94,1.46,1.23,2.27.18.49.39,1.09.91,1.19.4.08.78-.19,1.11-.44.71-.53,1.46-1.01,2.24-1.43.13-.07.27-.14.42-.12.17.02.3.16.41.29.47.56.86,1.19,1.18,1.85.17.35.33.74.67.92.18.1.39.13.6.15.88.08,1.76,0,2.62-.21" fill="none" stroke="#808285" stroke-miterlimit="10"/>
    <path d="M378.92,137.19l1.43-.48c.3-.1.63-.2.94-.12.29.08.51.3.72.51.32.32.64.65.88,1.03.21.32.37.68.63.96.73.78,1.99.72,3.01.41s2.04-.81,3.1-.71" fill="none" stroke="#808285" stroke-miterlimit="10"/>
  </g>
  <path d="M324.98,7.82c.52-.11,1.04.29,1.22.79s.07,1.06-.11,1.55" fill="none" stroke="#e6e7e8" stroke-miterlimit="10" stroke-width=".1"/>
  <ellipse cx="329.43" cy="13.54" rx="10.07" ry="7.22" fill="#e6e7e8"/>
  <path d="M321.61,13.09c-.05-.88-.01-1.76.1-2.63.59-.13,1.24.12,1.58.61.1.14.26.33.41.24.04-.03.07-.07.1-.11.53-.86,1.05-1.72,1.58-2.57.83.13,1.59.63,2.04,1.34.14.23.36.52.61.42.08-.03.13-.09.19-.14.66-.66,1.45-1.06,2.11-1.72.82-.2,1.66-.27,2.5-.22.14,0,.3.03.4.12.1.1.13.25.16.39.07.41.15.83.07,1.25s-.32.82-.71.97c.77,0,1.54,0,2.31.01l-.45,1.61c-.03.11-.06.22-.03.32.03.11.11.19.19.26.63.63,1.3,1.28,2.15,1.52" fill="none" stroke="#808285" stroke-miterlimit="10"/>
  <path d="M324.08,14.16c.42-.72.92-1.38,1.5-1.98.52.69.94,1.46,1.23,2.27.18.49.39,1.09.91,1.19.4.08.78-.19,1.11-.44.71-.53,1.46-1.01,2.24-1.43.13-.07.27-.14.42-.12.17.02.3.16.41.29.47.56.86,1.19,1.18,1.85.17.35.33.74.67.92.18.1.39.13.6.15.88.08,1.76,0,2.62-.21" fill="none" stroke="#808285" stroke-miterlimit="10"/>
  <path d="M321.94,16.93l1.43-.48c.3-.1.63-.2.94-.12.29.08.51.3.72.51.32.32.64.65.88,1.03.21.32.37.68.63.96.73.78,1.99.72,3.01.41s2.04-.81,3.1-.71" fill="none" stroke="#808285" stroke-miterlimit="10"/>
  <g>
    <path d="M300.12,106.52c-1.38,2.42-2.62,3.67-3.75,3.75-.69.05-1.51-.34-2.46-1.15-5.69-4.92-11.37-11.34-17.04-19.24-.53,1.86-1.45,4.44-2.74,7.73-1.19,3-2.09,5.12-2.72,6.38-.34.69-.69,1.03-1.03,1.03-.19,0-.42-.1-.7-.3-1.02-.77-1.52-1.4-1.52-1.9,0-.3.09-.67.28-1.12.41-.91.84-2.12,1.29-3.66.02-.39.03-.77.05-1.15.03-.27.16-.43.4-.49.2-.05.65.45,1.34,1.5,1.19-2.52,2.52-5.83,3.98-9.94-.84-1.3-1.27-2.09-1.27-2.39,0-.36.74-.6,2.23-.73.66-1.91,1.38-4.34,2.16-7.31-2.56.97-4.47,1.8-5.72,2.48-1.92,1.05-3.44,2.29-4.55,3.73-.47.59-.7,1.28-.7,2.06,0,.61.3,1.8.89,3.59.17.52.02.77-.45.77-.3,0-.55-.16-.75-.47-.91-1.36-1.62-2.74-2.16-4.15-.38-.97-.56-1.59-.56-1.88,0-.8.55-1.7,1.66-2.72,3.16-2.91,7.45-5.18,12.87-6.82.08-.14.2-.7.35-1.66.12-.75.31-1.11.56-1.08.3.05.77.69,1.43,1.92,3.58-.86,5.82-1.26,6.73-1.2,1.41.09,2.49,1.09,3.26,2.98.95.67,1.58,1.23,1.88,1.69.42.59.63,1.39.63,2.39,0,1.73-1.06,3.92-3.19,6.56-2.17,2.7-4.04,4.05-5.6,4.05-.86,0-1.66-.2-2.39-.61l-1.69-1.12c-.22-.14-.33-.3-.33-.49,0-.41.26-.61.77-.61.12,0,.39.07.8.2s.77.2,1.08.2c1.55,0,3.3-1.26,5.25-3.77,1.77-2.25,2.65-4.12,2.65-5.6,0-1.8-1.25-2.7-3.75-2.7-2.09,0-4.4.5-6.91,1.5-.72,3.12-1.59,6.2-2.62,9.21,3.08,4.61,6.58,9.07,10.5,13.38,4.2,4.59,7.07,6.95,8.6,7.05.64.05,1.3-.19,1.97-.7.28-.23.54-.35.77-.35.31,0,.47.15.47.45,0,.2-.08.44-.23.7Z" fill="#f3e5d3"/>
    <path d="M308.51,97.45c-3.8,4.86-6.47,7.29-8.02,7.29-.73,0-1.66-.51-2.79-1.52-1.17-.55-1.76-1.28-1.76-2.2,0-.17.02-.35.05-.54.28-2.14.85-4.51,1.71-7.1-.58-.3-.87-.58-.87-.84,0-.22.16-.33.49-.33.25,0,.51.07.77.21,1.39-3.12,2.64-5.34,3.75-6.66.72-.88,1.37-1.31,1.95-1.31.27,0,.92.23,1.97.68-.08-.47.05-.74.4-.82h1.1c.67,0,1.01.12,1.01.35,0,.05-.02.18-.07.4s-.07.42-.07.61c0,.56,0,1.26.02,2.09s.02,1.38.02,1.66c0,1.94-.53,3.29-1.59,4.05-.97.7-2.06,1.05-3.28,1.05-.64,0-1.7-.17-3.19-.52-.27.48-.56,1.43-.89,2.84-.44,1.78-.64,3.36-.61,4.73.02.81.27,1.22.77,1.22.19,0,.43-.05.73-.14,1.81-.64,4.34-2.59,7.57-5.86.2-.2.41-.3.61-.3.3,0,.45.14.45.42,0,.17-.08.35-.23.54ZM305.77,87.09c0-.61-.13-.91-.4-.91-.17,0-.42.12-.75.38-1.53,1.23-2.88,3.4-4.03,6.49.31.05.86.09,1.64.14,1.27.05,2.21-.24,2.84-.87.47-.47.73-1.24.77-2.32-.05.8-.07-.17-.07-2.91Z" fill="#f3e5d3"/>
    <path d="M328.34,89.69c-.19,2.64-.88,5.48-2.09,8.51-1.12,2.83-2.23,4.76-3.33,5.79-.62.58-1.26.87-1.9.87-.72,0-1.91-.58-3.59-1.73-.33-.22-.49-.45-.49-.68,0-.3.21-.45.63-.45.17,0,.42.05.75.16s.59.16.8.16c1.14,0,2.16-.73,3.07-2.18.77-1.25,1.49-2.93,2.18-5.04.83-2.62,1.19-4.88,1.08-6.77-.05-.91-.35-1.36-.91-1.36-.5,0-1.11.34-1.83,1.03-5.06,4.84-8.62,10.63-10.69,17.37-1.17,3.83-1.95,7.38-2.34,10.64-.02.11-.23,2.82-.63,8.13-.06.77-.25,1.15-.56,1.15-.33,0-.91-.38-1.76-1.15-.61-.56-.84-1.25-.7-2.06.69-7.78,2.57-16.45,5.65-25.99,2.42-7.47,4.34-12.31,5.77-14.53.84-1.3,1.59-1.93,2.25-1.9.66.02,1.91.6,3.75,1.76.25.16.38.32.38.49,0,.23-.19.35-.56.35-.09,0-.25-.02-.47-.06s-.38-.06-.49-.06c-.98,0-2.01.84-3.07,2.51-.62.95-1.41,2.55-2.37,4.8s-1.64,4.1-2.06,5.55c2.3-3.75,4.97-6.97,8.02-9.66.47-.41.89-.61,1.27-.61.17,0,.6.23,1.29.7,2.12.75,3.12,2.16,2.98,4.24Z" fill="#f3e5d3"/>
    <path d="M345.19,89.29c-.03,1.39-.37,3.23-1.01,5.53-1.02,3.62-2.45,6.44-4.31,8.44-.98,1.06-2.08,1.59-3.28,1.59-.47,0-1.07-.1-1.8-.3-1.47-.09-2.66-.55-3.59-1.38-1-.91-1.47-2.07-1.41-3.49.06-1.66.63-3.97,1.71-6.94,1.19-3.23,2.42-5.56,3.7-6.98.61-.69,1.11-1.03,1.5-1.03.53,0,1.39.55,2.58,1.64.33-.16,1-.45,2.02-.87.52-.17.91-.26,1.17-.26.61,0,1.29.57,2.04,1.71.48.7.71,1.48.68,2.34ZM342.49,89.97c.11-1.05.16-1.71.16-1.99,0-.66-.2-.98-.61-.98-.16,0-.36.03-.61.09l-3.63,1.48c-.42.17-.66.26-.73.26-.12,0-.25-.15-.38-.45-.91,1.11-1.75,2.71-2.53,4.8-.61,1.64-1.03,3.11-1.27,4.41-.17.88-.26,1.67-.26,2.39,0,2.41.74,3.58,2.23,3.52.59-.02,1.23-.25,1.92-.7,1.31-.89,2.54-2.67,3.68-5.34,1.09-2.52,1.77-5.01,2.02-7.48Z" fill="#f3e5d3"/>
    <path d="M361.66,86.5c0,2.05-.27,4-.82,5.86-.17.56-.41.84-.7.84-.22,0-.7-.31-1.45-.94-.38-.31-.47-.76-.28-1.34.44-1.42.66-2.56.66-3.42,0-.3-.06-.45-.19-.45-.19,0-.49.28-.91.84-3.25,4.23-5.68,8.98-7.29,14.25-.52,1.67-.95,2.51-1.31,2.51-.14,0-.76-.27-1.85-.82-.53-.27-.71-.78-.54-1.55,1.23-5.41,2.56-9.97,3.98-13.69-1.16,1.22-1.89,2.05-2.2,2.51-.12.19-.3.28-.52.28-.27,0-.4-.12-.4-.35,0-.14.06-.3.19-.47.77-.92,1.79-2.33,3.07-4.22.39-.69.78-1.03,1.17-1.03.28,0,.85.22,1.71.66.48.25.56.59.23,1.01-.34.45-.99,2.05-1.95,4.8-.91,2.67-1.53,4.77-1.88,6.28,2.12-4.73,4.54-8.91,7.24-12.54.52-.69.93-1.03,1.24-1.03.28,0,.66.19,1.15.56.66.08,1.07.18,1.24.3.27.19.4.56.4,1.12Z" fill="#f3e5d3"/>
    <path d="M375.19,74.22c.44.23.66.5.66.8,0,.2-.15.3-.45.3-.06,0-.16-.01-.29-.04s-.23-.04-.29-.04c-.59,0-1.31.65-2.16,1.95-.75,1.16-1.79,3.67-3.12,7.55-.12.34-.17.55-.14.61.05.11.25.17.61.19.92.08,2.16.05,3.7-.09.53-.05.8.18.8.68,0,.34-.2.55-.61.63-.33.05-2.05.19-5.18.42-1.88,5.48-3.02,10.12-3.42,13.92-.02.2-.02.38-.02.54,0,.53.13.8.4.8.42,0,1.7-1.02,3.82-3.07.25-.25.49-.38.73-.38.2,0,.33.09.38.26.05.19-.02.41-.21.66-1.27,1.67-2.51,3.09-3.73,4.27-.52.48-.95.73-1.29.73s-.88-.27-1.59-.82c-.89-.23-1.34-.7-1.34-1.41,0-.11.02-.23.05-.38.58-4.03,1.71-8.99,3.4-14.88-.83-.11-1.58-.22-2.25-.33-.3-.05-.45-.23-.45-.56,0-.36.16-.58.47-.66s.89-.25,1.73-.52c.52-.17,1.02-.41,1.5-.7,1.67-5.17,2.98-8.52,3.94-10.05.55-.88,1.13-1.31,1.76-1.31s1.46.31,2.6.94Z" fill="#f3e5d3"/>
  </g>
</svg>